<mxfile host="app.diagrams.net" modified="2024-01-04T14:56:18.594Z" agent="Mozilla/5.0 (Windows NT 10.0; Win64; x64; rv:121.0) Gecko/20100101 Firefox/121.0" etag="Uo8JOpbTjv3_cXztJc6C" version="22.1.16" type="device">
  <diagram id="kbR7QFBh4Juw0m6U138V" name="Page-1">
    <mxGraphModel dx="1498" dy="847" grid="1" gridSize="10" guides="1" tooltips="1" connect="1" arrows="1" fold="1" page="1" pageScale="1" pageWidth="827" pageHeight="1169" math="0" shadow="0">
      <root>
        <mxCell id="0" />
        <mxCell id="1" parent="0" />
        <mxCell id="ecdNz4Ku9t3Qj6MTJcpb-12" style="edgeStyle=orthogonalEdgeStyle;rounded=0;orthogonalLoop=1;jettySize=auto;html=1;entryX=0;entryY=0.5;entryDx=0;entryDy=0;endArrow=none;endFill=0;" parent="1" source="jWKj23kP3KuPFPuK_N8y-1" target="ecdNz4Ku9t3Qj6MTJcpb-10" edge="1">
          <mxGeometry relative="1" as="geometry" />
        </mxCell>
        <mxCell id="ecdNz4Ku9t3Qj6MTJcpb-17" style="edgeStyle=orthogonalEdgeStyle;rounded=0;orthogonalLoop=1;jettySize=auto;html=1;entryX=0.5;entryY=0;entryDx=0;entryDy=0;endArrow=none;endFill=0;" parent="1" source="jWKj23kP3KuPFPuK_N8y-1" target="ecdNz4Ku9t3Qj6MTJcpb-16" edge="1">
          <mxGeometry relative="1" as="geometry" />
        </mxCell>
        <mxCell id="jWKj23kP3KuPFPuK_N8y-1" value="&lt;div&gt;Canzone&lt;/div&gt;" style="whiteSpace=wrap;html=1;align=center;" parent="1" vertex="1">
          <mxGeometry x="160" y="119" width="100" height="40" as="geometry" />
        </mxCell>
        <mxCell id="NWpIGaxac5_bUzahcQuc-2" style="rounded=0;orthogonalLoop=1;jettySize=auto;html=1;endArrow=oval;endFill=1;exitX=0.5;exitY=1;exitDx=0;exitDy=0;" edge="1" parent="1" source="jWKj23kP3KuPFPuK_N8y-2" target="NWpIGaxac5_bUzahcQuc-1">
          <mxGeometry relative="1" as="geometry" />
        </mxCell>
        <mxCell id="jWKj23kP3KuPFPuK_N8y-2" value="Playlist" style="whiteSpace=wrap;html=1;align=center;" parent="1" vertex="1">
          <mxGeometry x="370" y="359" width="100" height="40" as="geometry" />
        </mxCell>
        <mxCell id="ecdNz4Ku9t3Qj6MTJcpb-8" style="edgeStyle=orthogonalEdgeStyle;rounded=0;orthogonalLoop=1;jettySize=auto;html=1;entryX=0.5;entryY=0;entryDx=0;entryDy=0;endArrow=none;endFill=0;" parent="1" source="jWKj23kP3KuPFPuK_N8y-3" target="ecdNz4Ku9t3Qj6MTJcpb-7" edge="1">
          <mxGeometry relative="1" as="geometry">
            <mxPoint x="610" y="249" as="targetPoint" />
          </mxGeometry>
        </mxCell>
        <mxCell id="ecdNz4Ku9t3Qj6MTJcpb-11" style="edgeStyle=orthogonalEdgeStyle;rounded=0;orthogonalLoop=1;jettySize=auto;html=1;entryX=1;entryY=0.5;entryDx=0;entryDy=0;endArrow=none;endFill=0;" parent="1" source="jWKj23kP3KuPFPuK_N8y-3" target="ecdNz4Ku9t3Qj6MTJcpb-10" edge="1">
          <mxGeometry relative="1" as="geometry" />
        </mxCell>
        <mxCell id="jWKj23kP3KuPFPuK_N8y-3" value="&lt;div&gt;Persona&lt;/div&gt;" style="whiteSpace=wrap;html=1;align=center;" parent="1" vertex="1">
          <mxGeometry x="560" y="119" width="100" height="40" as="geometry" />
        </mxCell>
        <mxCell id="jWKj23kP3KuPFPuK_N8y-18" style="edgeStyle=none;rounded=0;orthogonalLoop=1;jettySize=auto;html=1;entryX=0;entryY=0.5;entryDx=0;entryDy=0;endArrow=none;endFill=0;startArrow=oval;startFill=1;" parent="1" source="jWKj23kP3KuPFPuK_N8y-10" target="jWKj23kP3KuPFPuK_N8y-1" edge="1">
          <mxGeometry relative="1" as="geometry" />
        </mxCell>
        <mxCell id="jWKj23kP3KuPFPuK_N8y-10" value="&lt;u&gt;idCanzone&lt;/u&gt;" style="text;html=1;align=center;verticalAlign=middle;resizable=0;points=[];autosize=1;strokeColor=none;fillColor=none;" parent="1" vertex="1">
          <mxGeometry x="10" y="79" width="80" height="30" as="geometry" />
        </mxCell>
        <mxCell id="jWKj23kP3KuPFPuK_N8y-19" style="edgeStyle=none;rounded=0;orthogonalLoop=1;jettySize=auto;html=1;endArrow=none;endFill=0;startArrow=oval;startFill=0;entryX=0;entryY=0.5;entryDx=0;entryDy=0;" parent="1" source="jWKj23kP3KuPFPuK_N8y-11" target="jWKj23kP3KuPFPuK_N8y-1" edge="1">
          <mxGeometry relative="1" as="geometry">
            <mxPoint x="200" y="139" as="targetPoint" />
          </mxGeometry>
        </mxCell>
        <mxCell id="jWKj23kP3KuPFPuK_N8y-11" value="&lt;div&gt;titolo&lt;/div&gt;" style="text;html=1;align=center;verticalAlign=middle;resizable=0;points=[];autosize=1;strokeColor=none;fillColor=none;" parent="1" vertex="1">
          <mxGeometry x="20" y="109" width="50" height="30" as="geometry" />
        </mxCell>
        <mxCell id="jWKj23kP3KuPFPuK_N8y-20" style="edgeStyle=none;rounded=0;orthogonalLoop=1;jettySize=auto;html=1;entryX=0;entryY=0.5;entryDx=0;entryDy=0;endArrow=none;endFill=0;startArrow=oval;startFill=0;" parent="1" source="jWKj23kP3KuPFPuK_N8y-14" target="jWKj23kP3KuPFPuK_N8y-1" edge="1">
          <mxGeometry relative="1" as="geometry" />
        </mxCell>
        <mxCell id="jWKj23kP3KuPFPuK_N8y-14" value="&lt;div&gt;produttore&lt;/div&gt;" style="text;html=1;align=center;verticalAlign=middle;resizable=0;points=[];autosize=1;strokeColor=none;fillColor=none;" parent="1" vertex="1">
          <mxGeometry x="10" y="139" width="80" height="30" as="geometry" />
        </mxCell>
        <mxCell id="jWKj23kP3KuPFPuK_N8y-21" style="edgeStyle=none;rounded=0;orthogonalLoop=1;jettySize=auto;html=1;entryX=0;entryY=0.5;entryDx=0;entryDy=0;endArrow=none;endFill=0;startArrow=oval;startFill=0;" parent="1" source="jWKj23kP3KuPFPuK_N8y-15" target="jWKj23kP3KuPFPuK_N8y-1" edge="1">
          <mxGeometry relative="1" as="geometry" />
        </mxCell>
        <mxCell id="jWKj23kP3KuPFPuK_N8y-15" value="anno" style="text;html=1;align=center;verticalAlign=middle;resizable=0;points=[];autosize=1;strokeColor=none;fillColor=none;" parent="1" vertex="1">
          <mxGeometry x="20" y="169" width="50" height="30" as="geometry" />
        </mxCell>
        <mxCell id="jWKj23kP3KuPFPuK_N8y-22" style="edgeStyle=none;rounded=0;orthogonalLoop=1;jettySize=auto;html=1;endArrow=none;endFill=0;startArrow=oval;startFill=0;entryX=0;entryY=0.5;entryDx=0;entryDy=0;" parent="1" source="jWKj23kP3KuPFPuK_N8y-16" target="jWKj23kP3KuPFPuK_N8y-1" edge="1">
          <mxGeometry relative="1" as="geometry">
            <mxPoint x="200" y="139" as="targetPoint" />
          </mxGeometry>
        </mxCell>
        <mxCell id="jWKj23kP3KuPFPuK_N8y-16" value="album" style="text;html=1;align=center;verticalAlign=middle;resizable=0;points=[];autosize=1;strokeColor=none;fillColor=none;" parent="1" vertex="1">
          <mxGeometry x="15" y="199" width="60" height="30" as="geometry" />
        </mxCell>
        <mxCell id="jWKj23kP3KuPFPuK_N8y-23" style="edgeStyle=none;rounded=0;orthogonalLoop=1;jettySize=auto;html=1;endArrow=none;endFill=0;startArrow=oval;startFill=0;entryX=0;entryY=0.5;entryDx=0;entryDy=0;" parent="1" source="jWKj23kP3KuPFPuK_N8y-17" target="jWKj23kP3KuPFPuK_N8y-1" edge="1">
          <mxGeometry relative="1" as="geometry">
            <mxPoint x="200" y="139" as="targetPoint" />
          </mxGeometry>
        </mxCell>
        <mxCell id="jWKj23kP3KuPFPuK_N8y-17" value="durata" style="text;html=1;align=center;verticalAlign=middle;resizable=0;points=[];autosize=1;strokeColor=none;fillColor=none;" parent="1" vertex="1">
          <mxGeometry x="15" y="229" width="60" height="30" as="geometry" />
        </mxCell>
        <mxCell id="jWKj23kP3KuPFPuK_N8y-33" style="edgeStyle=none;rounded=0;orthogonalLoop=1;jettySize=auto;html=1;entryX=1;entryY=0.5;entryDx=0;entryDy=0;endArrow=none;endFill=0;startArrow=oval;startFill=1;" parent="1" source="jWKj23kP3KuPFPuK_N8y-24" target="jWKj23kP3KuPFPuK_N8y-3" edge="1">
          <mxGeometry relative="1" as="geometry" />
        </mxCell>
        <mxCell id="jWKj23kP3KuPFPuK_N8y-24" value="&lt;u&gt;userid&lt;/u&gt;" style="text;html=1;align=center;verticalAlign=middle;resizable=0;points=[];autosize=1;strokeColor=none;fillColor=none;" parent="1" vertex="1">
          <mxGeometry x="767" y="79" width="60" height="30" as="geometry" />
        </mxCell>
        <mxCell id="jWKj23kP3KuPFPuK_N8y-34" style="edgeStyle=none;rounded=0;orthogonalLoop=1;jettySize=auto;html=1;endArrow=none;endFill=0;startArrow=oval;startFill=0;entryX=1;entryY=0.5;entryDx=0;entryDy=0;" parent="1" source="jWKj23kP3KuPFPuK_N8y-25" target="jWKj23kP3KuPFPuK_N8y-3" edge="1">
          <mxGeometry relative="1" as="geometry">
            <mxPoint x="620" y="139" as="targetPoint" />
          </mxGeometry>
        </mxCell>
        <mxCell id="jWKj23kP3KuPFPuK_N8y-25" value="password" style="text;html=1;align=center;verticalAlign=middle;resizable=0;points=[];autosize=1;strokeColor=none;fillColor=none;" parent="1" vertex="1">
          <mxGeometry x="757" y="99" width="70" height="30" as="geometry" />
        </mxCell>
        <mxCell id="jWKj23kP3KuPFPuK_N8y-35" style="edgeStyle=none;rounded=0;orthogonalLoop=1;jettySize=auto;html=1;entryX=1;entryY=0.5;entryDx=0;entryDy=0;endArrow=none;endFill=0;startArrow=oval;startFill=0;" parent="1" source="jWKj23kP3KuPFPuK_N8y-27" target="jWKj23kP3KuPFPuK_N8y-3" edge="1">
          <mxGeometry relative="1" as="geometry" />
        </mxCell>
        <mxCell id="jWKj23kP3KuPFPuK_N8y-27" value="e-mail" style="text;html=1;align=center;verticalAlign=middle;resizable=0;points=[];autosize=1;strokeColor=none;fillColor=none;" parent="1" vertex="1">
          <mxGeometry x="767" y="119" width="60" height="30" as="geometry" />
        </mxCell>
        <mxCell id="jWKj23kP3KuPFPuK_N8y-36" style="edgeStyle=none;rounded=0;orthogonalLoop=1;jettySize=auto;html=1;entryX=1;entryY=0.5;entryDx=0;entryDy=0;endArrow=none;endFill=0;startArrow=oval;startFill=0;" parent="1" source="jWKj23kP3KuPFPuK_N8y-28" target="jWKj23kP3KuPFPuK_N8y-3" edge="1">
          <mxGeometry relative="1" as="geometry" />
        </mxCell>
        <mxCell id="jWKj23kP3KuPFPuK_N8y-28" value="codicefiscale" style="text;html=1;align=center;verticalAlign=middle;resizable=0;points=[];autosize=1;strokeColor=none;fillColor=none;" parent="1" vertex="1">
          <mxGeometry x="737" y="139" width="90" height="30" as="geometry" />
        </mxCell>
        <mxCell id="jWKj23kP3KuPFPuK_N8y-37" style="edgeStyle=none;rounded=0;orthogonalLoop=1;jettySize=auto;html=1;entryX=1;entryY=0.5;entryDx=0;entryDy=0;endArrow=none;endFill=0;startArrow=oval;startFill=0;" parent="1" source="jWKj23kP3KuPFPuK_N8y-29" target="jWKj23kP3KuPFPuK_N8y-3" edge="1">
          <mxGeometry relative="1" as="geometry" />
        </mxCell>
        <mxCell id="jWKj23kP3KuPFPuK_N8y-29" value="nome" style="text;html=1;align=center;verticalAlign=middle;resizable=0;points=[];autosize=1;strokeColor=none;fillColor=none;" parent="1" vertex="1">
          <mxGeometry x="772" y="159" width="50" height="30" as="geometry" />
        </mxCell>
        <mxCell id="jWKj23kP3KuPFPuK_N8y-38" style="edgeStyle=none;rounded=0;orthogonalLoop=1;jettySize=auto;html=1;entryX=1;entryY=0.5;entryDx=0;entryDy=0;endArrow=none;endFill=0;startArrow=oval;startFill=0;" parent="1" source="jWKj23kP3KuPFPuK_N8y-30" target="jWKj23kP3KuPFPuK_N8y-3" edge="1">
          <mxGeometry relative="1" as="geometry" />
        </mxCell>
        <mxCell id="jWKj23kP3KuPFPuK_N8y-30" value="cognome" style="text;html=1;align=center;verticalAlign=middle;resizable=0;points=[];autosize=1;strokeColor=none;fillColor=none;" parent="1" vertex="1">
          <mxGeometry x="757" y="179" width="70" height="30" as="geometry" />
        </mxCell>
        <mxCell id="jWKj23kP3KuPFPuK_N8y-39" style="edgeStyle=none;rounded=0;orthogonalLoop=1;jettySize=auto;html=1;entryX=1;entryY=0.5;entryDx=0;entryDy=0;endArrow=none;endFill=0;startArrow=oval;startFill=0;" parent="1" source="jWKj23kP3KuPFPuK_N8y-31" target="jWKj23kP3KuPFPuK_N8y-3" edge="1">
          <mxGeometry relative="1" as="geometry" />
        </mxCell>
        <mxCell id="jWKj23kP3KuPFPuK_N8y-31" value="indirizzo" style="text;html=1;align=center;verticalAlign=middle;resizable=0;points=[];autosize=1;strokeColor=none;fillColor=none;" parent="1" vertex="1">
          <mxGeometry x="757" y="199" width="70" height="30" as="geometry" />
        </mxCell>
        <mxCell id="jWKj23kP3KuPFPuK_N8y-54" style="edgeStyle=none;rounded=0;orthogonalLoop=1;jettySize=auto;html=1;entryX=0.5;entryY=1;entryDx=0;entryDy=0;endArrow=none;endFill=0;startArrow=oval;startFill=0;" parent="1" source="jWKj23kP3KuPFPuK_N8y-53" target="jWKj23kP3KuPFPuK_N8y-2" edge="1">
          <mxGeometry relative="1" as="geometry" />
        </mxCell>
        <mxCell id="jWKj23kP3KuPFPuK_N8y-53" value="titolo" style="text;html=1;align=center;verticalAlign=middle;resizable=0;points=[];autosize=1;strokeColor=none;fillColor=none;" parent="1" vertex="1">
          <mxGeometry x="395.5" y="449" width="50" height="30" as="geometry" />
        </mxCell>
        <mxCell id="jWKj23kP3KuPFPuK_N8y-59" style="edgeStyle=none;rounded=0;orthogonalLoop=1;jettySize=auto;html=1;entryX=0.5;entryY=1;entryDx=0;entryDy=0;endArrow=none;endFill=0;startArrow=oval;startFill=0;" parent="1" source="jWKj23kP3KuPFPuK_N8y-57" target="jWKj23kP3KuPFPuK_N8y-2" edge="1">
          <mxGeometry relative="1" as="geometry" />
        </mxCell>
        <mxCell id="jWKj23kP3KuPFPuK_N8y-57" value="userid" style="text;html=1;align=center;verticalAlign=middle;resizable=0;points=[];autosize=1;strokeColor=none;fillColor=none;" parent="1" vertex="1">
          <mxGeometry x="445.5" y="449" width="60" height="30" as="geometry" />
        </mxCell>
        <mxCell id="ecdNz4Ku9t3Qj6MTJcpb-13" style="edgeStyle=orthogonalEdgeStyle;rounded=0;orthogonalLoop=1;jettySize=auto;html=1;entryX=0.5;entryY=1;entryDx=0;entryDy=0;endArrow=none;endFill=0;" parent="1" source="ecdNz4Ku9t3Qj6MTJcpb-6" target="ecdNz4Ku9t3Qj6MTJcpb-10" edge="1">
          <mxGeometry relative="1" as="geometry" />
        </mxCell>
        <mxCell id="ecdNz4Ku9t3Qj6MTJcpb-21" style="rounded=0;orthogonalLoop=1;jettySize=auto;html=1;endArrow=oval;endFill=1;" parent="1" source="ecdNz4Ku9t3Qj6MTJcpb-6" target="ecdNz4Ku9t3Qj6MTJcpb-20" edge="1">
          <mxGeometry relative="1" as="geometry" />
        </mxCell>
        <mxCell id="ecdNz4Ku9t3Qj6MTJcpb-23" style="rounded=0;orthogonalLoop=1;jettySize=auto;html=1;endArrow=oval;endFill=0;" parent="1" source="ecdNz4Ku9t3Qj6MTJcpb-6" target="ecdNz4Ku9t3Qj6MTJcpb-22" edge="1">
          <mxGeometry relative="1" as="geometry" />
        </mxCell>
        <mxCell id="ecdNz4Ku9t3Qj6MTJcpb-6" value="Emozione" style="whiteSpace=wrap;html=1;align=center;" parent="1" vertex="1">
          <mxGeometry x="370" y="209" width="100" height="40" as="geometry" />
        </mxCell>
        <mxCell id="ecdNz4Ku9t3Qj6MTJcpb-15" style="edgeStyle=orthogonalEdgeStyle;rounded=0;orthogonalLoop=1;jettySize=auto;html=1;exitX=0.5;exitY=1;exitDx=0;exitDy=0;entryX=1;entryY=0.5;entryDx=0;entryDy=0;endArrow=none;endFill=0;" parent="1" source="ecdNz4Ku9t3Qj6MTJcpb-7" target="jWKj23kP3KuPFPuK_N8y-2" edge="1">
          <mxGeometry relative="1" as="geometry" />
        </mxCell>
        <mxCell id="ecdNz4Ku9t3Qj6MTJcpb-7" value="crea" style="shape=rhombus;perimeter=rhombusPerimeter;whiteSpace=wrap;html=1;align=center;" parent="1" vertex="1">
          <mxGeometry x="550" y="249" width="120" height="60" as="geometry" />
        </mxCell>
        <mxCell id="ecdNz4Ku9t3Qj6MTJcpb-26" style="rounded=0;orthogonalLoop=1;jettySize=auto;html=1;endArrow=oval;endFill=0;" parent="1" source="ecdNz4Ku9t3Qj6MTJcpb-10" target="ecdNz4Ku9t3Qj6MTJcpb-24" edge="1">
          <mxGeometry relative="1" as="geometry" />
        </mxCell>
        <mxCell id="ecdNz4Ku9t3Qj6MTJcpb-27" style="rounded=0;orthogonalLoop=1;jettySize=auto;html=1;endArrow=oval;endFill=0;entryX=0.443;entryY=0.994;entryDx=0;entryDy=0;entryPerimeter=0;" parent="1" source="ecdNz4Ku9t3Qj6MTJcpb-10" target="vOpSXZ5aTm559udaJpl0-1" edge="1">
          <mxGeometry relative="1" as="geometry">
            <mxPoint x="443.82142857142867" y="70" as="targetPoint" />
          </mxGeometry>
        </mxCell>
        <mxCell id="ecdNz4Ku9t3Qj6MTJcpb-10" value="percepisce" style="shape=rhombus;perimeter=rhombusPerimeter;whiteSpace=wrap;html=1;align=center;" parent="1" vertex="1">
          <mxGeometry x="360" y="109" width="120" height="60" as="geometry" />
        </mxCell>
        <mxCell id="ecdNz4Ku9t3Qj6MTJcpb-19" style="edgeStyle=orthogonalEdgeStyle;rounded=0;orthogonalLoop=1;jettySize=auto;html=1;entryX=0;entryY=0.5;entryDx=0;entryDy=0;exitX=0.5;exitY=1;exitDx=0;exitDy=0;endArrow=none;endFill=0;" parent="1" source="ecdNz4Ku9t3Qj6MTJcpb-16" target="jWKj23kP3KuPFPuK_N8y-2" edge="1">
          <mxGeometry relative="1" as="geometry" />
        </mxCell>
        <mxCell id="ecdNz4Ku9t3Qj6MTJcpb-16" value="inserita" style="shape=rhombus;perimeter=rhombusPerimeter;whiteSpace=wrap;html=1;align=center;" parent="1" vertex="1">
          <mxGeometry x="150" y="249" width="120" height="60" as="geometry" />
        </mxCell>
        <mxCell id="ecdNz4Ku9t3Qj6MTJcpb-20" value="&lt;u&gt;idEmozione&lt;/u&gt;" style="text;html=1;align=center;verticalAlign=middle;resizable=0;points=[];autosize=1;strokeColor=none;fillColor=none;" parent="1" vertex="1">
          <mxGeometry x="340" y="279" width="90" height="30" as="geometry" />
        </mxCell>
        <mxCell id="ecdNz4Ku9t3Qj6MTJcpb-22" value="tipo" style="text;html=1;align=center;verticalAlign=middle;resizable=0;points=[];autosize=1;strokeColor=none;fillColor=none;" parent="1" vertex="1">
          <mxGeometry x="430" y="279" width="40" height="30" as="geometry" />
        </mxCell>
        <mxCell id="ecdNz4Ku9t3Qj6MTJcpb-24" value="score" style="text;html=1;align=center;verticalAlign=middle;resizable=0;points=[];autosize=1;strokeColor=none;fillColor=none;" parent="1" vertex="1">
          <mxGeometry x="370" y="40" width="50" height="30" as="geometry" />
        </mxCell>
        <mxCell id="ecdNz4Ku9t3Qj6MTJcpb-29" value="(0,N)" style="text;html=1;align=center;verticalAlign=middle;resizable=0;points=[];autosize=1;strokeColor=none;fillColor=none;" parent="1" vertex="1">
          <mxGeometry x="560" y="159" width="50" height="30" as="geometry" />
        </mxCell>
        <mxCell id="vOpSXZ5aTm559udaJpl0-1" value="note" style="text;html=1;align=center;verticalAlign=middle;resizable=0;points=[];autosize=1;strokeColor=none;fillColor=none;" parent="1" vertex="1">
          <mxGeometry x="420" y="40" width="50" height="30" as="geometry" />
        </mxCell>
        <mxCell id="vOpSXZ5aTm559udaJpl0-2" value="(1,1)" style="text;html=1;align=center;verticalAlign=middle;resizable=0;points=[];autosize=1;strokeColor=none;fillColor=none;" parent="1" vertex="1">
          <mxGeometry x="470" y="348" width="50" height="30" as="geometry" />
        </mxCell>
        <mxCell id="vOpSXZ5aTm559udaJpl0-4" value="(0,N)" style="text;html=1;align=center;verticalAlign=middle;resizable=0;points=[];autosize=1;strokeColor=none;fillColor=none;" parent="1" vertex="1">
          <mxGeometry x="210" y="159" width="50" height="30" as="geometry" />
        </mxCell>
        <mxCell id="vOpSXZ5aTm559udaJpl0-5" value="(0,N)" style="text;html=1;align=center;verticalAlign=middle;resizable=0;points=[];autosize=1;strokeColor=none;fillColor=none;" parent="1" vertex="1">
          <mxGeometry x="320" y="348" width="50" height="30" as="geometry" />
        </mxCell>
        <mxCell id="vOpSXZ5aTm559udaJpl0-6" value="(0,N)" style="text;html=1;align=center;verticalAlign=middle;resizable=0;points=[];autosize=1;strokeColor=none;fillColor=none;" parent="1" vertex="1">
          <mxGeometry x="260" y="109" width="50" height="30" as="geometry" />
        </mxCell>
        <mxCell id="vOpSXZ5aTm559udaJpl0-7" value="(0,N)" style="text;html=1;align=center;verticalAlign=middle;resizable=0;points=[];autosize=1;strokeColor=none;fillColor=none;" parent="1" vertex="1">
          <mxGeometry x="515" y="109" width="50" height="30" as="geometry" />
        </mxCell>
        <mxCell id="vOpSXZ5aTm559udaJpl0-8" value="(0,N)" style="text;html=1;align=center;verticalAlign=middle;resizable=0;points=[];autosize=1;strokeColor=none;fillColor=none;" parent="1" vertex="1">
          <mxGeometry x="420" y="178" width="50" height="30" as="geometry" />
        </mxCell>
        <mxCell id="NWpIGaxac5_bUzahcQuc-1" value="idPlaylist" style="text;html=1;align=center;verticalAlign=middle;resizable=0;points=[];autosize=1;strokeColor=none;fillColor=none;fontStyle=4" vertex="1" parent="1">
          <mxGeometry x="334.5" y="449" width="70" height="30" as="geometry" />
        </mxCell>
      </root>
    </mxGraphModel>
  </diagram>
</mxfile>
